<svg width="43" height="43" viewBox="0 0 43 43" fill="none" xmlns="http://www.w3.org/2000/svg">
<path fill-rule="evenodd" clip-rule="evenodd" d="M20.7915 36.0406C29.5867 36.0406 36.7166 28.9107 36.7166 20.1155C36.7166 11.3203 29.5867 4.19043 20.7915 4.19043C11.9964 4.19043 4.86646 11.3203 4.86646 20.1155C4.86646 28.9107 11.9964 36.0406 20.7915 36.0406ZM20.7915 40.0406C25.5734 40.0406 29.9618 38.3561 33.3958 35.5482L39.3024 41.4548C40.0834 42.2358 41.3498 42.2358 42.1308 41.4548C42.9118 40.6737 42.9118 39.4074 42.1308 38.6264L36.2242 32.7197C39.0321 29.2858 40.7166 24.8974 40.7166 20.1155C40.7166 9.1112 31.7958 0.19043 20.7915 0.19043C9.78722 0.19043 0.866455 9.1112 0.866455 20.1155C0.866455 31.1199 9.78722 40.0406 20.7915 40.0406ZM25.9749 7.98957C24.3977 7.33625 22.7072 7 21 7V9C22.4445 9 23.8749 9.28452 25.2095 9.83733C26.5441 10.3901 27.7567 11.2004 28.7782 12.2218C29.7996 13.2433 30.6099 14.4559 31.1627 15.7905C31.7155 17.1251 32 18.5555 32 20H34C34 18.2928 33.6637 16.6023 33.0104 15.0251C32.3571 13.4479 31.3995 12.0148 30.1924 10.8076C28.9852 9.60045 27.5521 8.64288 25.9749 7.98957Z" fill="white"/>
</svg>
