<svg width="35" height="40" viewBox="0 0 35 40" fill="none" xmlns="http://www.w3.org/2000/svg">
<path d="M12.2475 2H33V38H2V13.4896L12.2475 2Z" stroke="white" stroke-width="4"/>
<path d="M13.5 15C12.9477 15 12.5 15.4477 12.5 16C12.5 16.5523 12.9477 17 13.5 17V15ZM27 17H28V15H27V17ZM13.5 17L27 17V15L13.5 15V17Z" fill="white"/>
<path d="M16 22.6191C15.4477 22.6191 15 23.0669 15 23.6191C15 24.1714 15.4477 24.6191 16 24.6191V22.6191ZM27 24.6191H28V22.6191H27V24.6191ZM16 24.6191L27 24.6191V22.6191L16 22.6191V24.6191Z" fill="white"/>
</svg>
